# xmcd
#
# Track frame offsets:
#	150
#	13155
#	33008
#	42809
#	56041
#	67882
#	86702
#	98066
#	118760
#	141288
#	155395
#	169227
#	184995
#	197240
#	209622
#	229940
#	242047
#	260104
#	279522
#	291040
#	304161
#	316130
#
# Disc length: 4635 seconds
#
# Revision: 1
# Processed by: cddbd v1.5PL3 Copyright (c) Steve Scherf et al.
# Submitted via: EasyCDDAExtractor 6.2.0.3
#
DISCID=45121916
DTITLE=Nina Simone -  Four Women Box Set - CD3
DYEAR=1900
DGENRE=
TTITLE0=Let It All Out - Chauffer
TTITLE1=Let It All Out - Don't Explain
TTITLE2=Let It All Out - For Myself
TTITLE3=Let It All Out - Images
TTITLE4=Let It All Out - Little Girl Blue
TTITLE5=Let It All Out - Love Me or Leave Me
TTITLE6=Let It All Out - Mood Indigo
TTITLE7=Let It All Out - Nearer Blessed Lord
TTITLE8=Let It All Out - The Ballad of Hollis Brown
TTITLE9=Let It All Out - The Other Woman
TTITLE10=Let It All Out - This Year's Kisses
TTITLE11=Wild is the Wind - Black Is the Color of My True Love's Hair
TTITLE12=Wild is the Wind - Break Down And Let It All Out
TTITLE13=Wild is the Wind - Either Way I Lose
TTITLE14=Wild is the Wind - Four Women
TTITLE15=Wild is the Wind - I Love Your Lovin' Ways
TTITLE16=Wild is the Wind - If I Should Lose You
TTITLE17=Wild is the Wind - Lilac Wine
TTITLE18=Wild is the Wind - That's All I Ask
TTITLE19=Wild is the Wind - What More Can I Say
TTITLE20=Wild is the Wind - Why Keep On Breaking My Heart
TTITLE21=Wild is the Wind - Wild is the Wind
EXTD=
EXTT0=
EXTT1=
EXTT2=
EXTT3=
EXTT4=
EXTT5=
EXTT6=
EXTT7=
EXTT8=
EXTT9=
EXTT10=
EXTT11=
EXTT12=
EXTT13=
EXTT14=
EXTT15=
EXTT16=
EXTT17=
EXTT18=
EXTT19=
EXTT20=
EXTT21=
PLAYORDER=
